<svg preserveAspectRatio="none" overflow="visible" style="display: block;" width="48" height="48" viewBox="0 0 48 48" fill="none" xmlns="http://www.w3.org/2000/svg">
<g id="Delivery">
<path id="Vector" d="M4.49604 14.2478C4.50098 13.5602 4.50209 12.8727 4.49934 12.1852C4.49906 11.8415 4.47729 11.106 4.55048 10.8044C4.61252 10.5529 4.74434 10.3241 4.93071 10.1442C5.4529 9.63785 6.15759 9.74801 6.83498 9.74803L8.73068 9.74881H14.779L25.6301 9.74862C27.5196 9.7485 29.5256 9.71463 31.4081 9.75558L31.4077 15.7955L31.4065 17.4541C31.4063 17.6958 31.3945 18.2234 31.4337 18.4435C31.4848 18.7164 31.6155 18.9681 31.8098 19.1665C32.1832 19.5468 32.6053 19.5958 33.1109 19.5958L40.5073 19.5928L42.4198 19.592C43.0109 19.5911 43.5759 19.5612 44.1527 19.6706C45.8302 19.989 47.43 21.0056 47.8399 22.755C47.8849 22.9472 47.9379 23.2675 48 23.4439V32.6939C47.8395 33.0192 47.8069 33.2325 47.5031 33.5014C46.9334 34.0057 46.0765 33.8217 45.3698 33.851C44.993 33.8665 44.5034 33.871 44.137 33.8466C44.0276 34.4489 43.7278 35.1474 43.402 35.6583C42.6314 36.8621 41.419 37.7154 40.0259 38.0349C38.6224 38.3393 37.1557 38.0754 35.9468 37.3006C34.7044 36.5035 33.8932 35.2999 33.5855 33.8623C33.1301 33.8417 32.6161 33.851 32.157 33.8508H29.8158L22.7163 33.851L20.498 33.8515C20.123 33.8517 19.6574 33.8703 19.2932 33.8466C19.1843 34.4482 18.8835 35.1481 18.5582 35.6583C17.7875 36.8621 16.5753 37.7154 15.1821 38.0349C13.7788 38.3393 12.312 38.0754 11.103 37.3006C9.86062 36.5035 9.04957 35.2999 8.74174 33.8625C7.88761 33.8285 6.99914 33.8653 6.13971 33.8536C5.64295 33.8548 5.247 33.7744 4.88794 33.409C4.47532 33.0021 4.49756 32.4947 4.49958 31.9564C4.5042 30.7165 4.4902 29.4741 4.50544 28.2338C3.88559 28.2265 3.26569 28.2246 2.64581 28.2284C1.76631 28.2303 0.597701 28.406 0.157145 27.447C0.112777 27.3504 0.0707423 27.2379 0.02103 27.147L0 27.1092V26.5142C0.0604388 26.4242 0.0935065 26.3128 0.141504 26.2151C0.301596 25.8891 0.538535 25.6329 0.882666 25.5005C1.31128 25.3353 3.07927 25.4042 3.65883 25.4042L10.7729 25.4046L12.8838 25.4063C13.4332 25.4079 14.2921 25.4841 14.768 25.2073C15.0874 25.021 15.3204 24.716 15.4163 24.3589C15.514 23.9951 15.461 23.6074 15.2692 23.2834C14.7648 22.432 13.7469 22.5991 12.89 22.5997L10.9054 22.6015L3.55533 22.6018C2.93313 22.6024 1.47597 22.6718 0.950175 22.5209C0.36663 22.3534 0.253514 21.9433 0 21.4844V20.8899C0.0630171 20.7845 0.101233 20.68 0.152476 20.5693C0.578234 19.6488 1.48351 19.7793 2.33178 19.7795H3.74053L8.38214 19.78C8.82825 19.7804 9.27551 19.7803 9.72159 19.7822C10.2755 19.7845 10.7907 19.6039 11.0857 19.1025C11.2942 18.7524 11.3525 18.3329 11.2471 17.9393C11.0949 17.3809 10.664 17.1261 10.1125 17.0932C9.42466 17.0522 8.73169 17.0687 8.04225 17.0686L4.1652 17.0697C3.70078 17.07 2.73691 17.1204 2.34354 16.9799C1.92003 16.8326 1.59278 16.4913 1.46347 16.062C1.3625 15.7222 1.4082 15.2771 1.58404 14.9679C1.7674 14.6407 2.07542 14.4018 2.43787 14.3056C2.83702 14.2024 4.01599 14.2576 4.49604 14.2478ZM14.2854 35.3246C15.6986 35.1738 16.7221 33.9061 16.5716 32.4931C16.421 31.0798 15.1534 30.056 13.7402 30.2067C12.3269 30.3572 11.3033 31.6249 11.4538 33.0382C11.6044 34.4515 12.8721 35.475 14.2854 35.3246ZM39.1291 35.3246C40.5424 35.1738 41.5659 33.9061 41.4152 32.4931C41.2648 31.0798 39.997 30.056 38.584 30.2067C37.1707 30.3572 36.147 31.6249 36.2977 33.0382C36.4481 34.4515 37.7159 35.475 39.1291 35.3246Z" fill="url(#paint0_linear_0_77)"/>
<path id="Vector_2" d="M34.2227 10.0386C37.6188 10.8269 39.559 12.7342 41.2945 15.6732C41.3988 15.8498 41.9032 16.6112 41.9492 16.7753C41.2524 16.8238 40.051 16.7893 39.33 16.7893L34.2162 16.7892C34.2394 16.0767 34.2195 15.2535 34.2192 14.5341L34.2227 10.0386Z" fill="url(#paint1_linear_0_77)"/>
</g>
<defs>
<linearGradient id="paint0_linear_0_77" x1="24" y1="9.73535" x2="24" y2="38.1583" gradientUnits="userSpaceOnUse">
<stop stop-color="#D30203"/>
<stop offset="1" stop-color="#A30101"/>
</linearGradient>
<linearGradient id="paint1_linear_0_77" x1="38.0827" y1="10.0386" x2="38.0827" y2="16.8012" gradientUnits="userSpaceOnUse">
<stop stop-color="#D30203"/>
<stop offset="1" stop-color="#A30101"/>
</linearGradient>
</defs>
</svg>
